PathFileType	4	(X/Y/Z)	pose_F01_0-96.trc
DataRate	CameraRate	NumFrames	NumMarkers	Units	OrigDataRate	OrigDataStartFrame	OrigNumFrames
30	30	9	21	m	30	84	96
Frame#	Time	CHip			RHip			RKnee			RAnkle			RBigToe			RSmallToe			RHeel			LHip			LKnee			LAnkle			LBigToe			LSmallToe			LHeel			Neck			Nose			RShoulder			RElbow			RWrist			LShoulder			LElbow			LWrist			
		X1	Y1	Z1	X2	Y2	Z2	X3	Y3	Z3	X4	Y4	Z4	X5	Y5	Z5	X6	Y6	Z6	X7	Y7	Z7	X8	Y8	Z8	X9	Y9	Z9	X10	Y10	Z10	X11	Y11	Z11	X12	Y12	Z12	X13	Y13	Z13	X14	Y14	Z14	X15	Y15	Z15	X16	Y16	Z16	X17	Y17	Z17	X18	Y18	Z18	X19	Y19	Z19	X20	Y20	Z20	X21	Y21	Z21	
84	2.8	-0.13107076397378278	1.8180936078445904	-0.41266186622653994	-0.14943348336030282	1.816337350774767	-0.3674407472181469	-0.18327778299546812	1.7028210371122119	-0.3399395596957737	-0.14240411222594151	1.5871924003384812	-0.433617844253112	-0.17297878512175344	1.5622579275048636	-0.47427191198965857	-0.17227776644034837	1.5696914055198776	-0.47604061199547215	-0.13391273273247523	1.5770612449832597	-0.4377015921112713	-0.11379078203543891	1.821433686652799	-0.46499202907909953	-0.11563508522159928	1.7164106903629235	-0.515610069018523	-0.10926349126609343	1.5932286310891204	-0.5022010593177572	-0.12199364882731625	1.570061512200846	-0.5637132803818996	-0.10999899907150212	1.5776015175212197	-0.5733138482825426	-0.10765303640611783	1.5841750804123373	-0.47577010827019445	-0.137623393747288	1.9640289706319236	-0.4561824703121099	-0.1604680793553911	2.0222317062079487	-0.5040616800321805	-0.1642480694396472	1.9631677874643674	-0.39447018080462837	-0.18264582587797307	1.8855473102424216	-0.37968058201137067	-0.20790542759059708	1.8312257222939519	-0.42572004296570026	-0.10424806524807366	1.965831109368035	-0.5082979366399462	-0.08611802988923198	1.8901882565795658	-0.5367821172156882	-0.0966894646564066	1.839222017300511	-0.5874668472839304
85	2.8333333333333335	-0.12886264427707525	1.8279371304955971	-0.4310609530650015	-0.14851838657215136	1.8259319636917142	-0.3803577800293265	-0.163509505960061	1.7104754229072152	-0.39676668710489926	-0.14240411222594151	1.5871924003384812	-0.433617844253112	-0.17297878512175344	1.5622579275048636	-0.47427191198965857	-0.17227776644034837	1.5696914055198776	-0.47604061199547215	-0.13391273273247523	1.5770612449832597	-0.4377015921112713	-0.11150335864897033	1.8303468884248777	-0.47441199686752666	-0.11579665011721532	1.7173475434002334	-0.5242475113781346	-0.10975985951122966	1.5933515745578217	-0.5013617473717402	-0.1240640344676617	1.5697936013365208	-0.56131145147102	-0.11030959161115396	1.5761268649491091	-0.5726047069419582	-0.10726126094257028	1.5845680028154991	-0.4716684642495396	-0.13066054111567027	1.9682437607616519	-0.4696352932031171	-0.15712355381801302	2.024883096747731	-0.5118797709340838	-0.1593688573294793	1.9662066781155232	-0.4051696165089199	-0.173460642388449	1.8917340123573663	-0.38343117371630747	-0.2040176730609494	1.833464472479718	-0.4301675628404683	-0.10151908003886627	1.9691473033089986	-0.5289930915787991	-0.08215282326639484	1.897032492729028	-0.5432218240525565	-0.0862341537507438	1.840825014669487	-0.5997199376475458
86	2.8666666666666667	-0.13076153081122735	1.8291998354651566	-0.4472194080367316	-0.14965648778877896	1.827365182494131	-0.3932075025327396	-0.16225340384108655	1.7095875772834188	-0.4209609976223936	-0.14240411222594151	1.5871924003384812	-0.433617844253112	-0.17297878512175344	1.5622579275048636	-0.47427191198965857	-0.17227776644034837	1.5696914055198776	-0.47604061199547215	-0.13391273273247523	1.5770612449832597	-0.4377015921112713	-0.11481332448537425	1.8307977841736662	-0.49702093908331146	-0.11759456965658174	1.7185431536729605	-0.5223737565914057	-0.10902213923060872	1.5975506634900474	-0.49822790421500945	-0.1263638449629058	1.5710315762161353	-0.5588093235818011	-0.112335881132544	1.5786371339432355	-0.5707241498499137	-0.10464790456499586	1.5867482061817313	-0.4751788884915877	-0.12667769008028065	1.969718210099543	-0.47453694823465803	-0.1539893352159399	2.030126367682221	-0.520903381071164	-0.1553534717912324	1.9700065574305876	-0.4102591550764872	-0.17160661631437552	1.8933578308679397	-0.3861339296321683	-0.20144537466446633	1.8362508990046105	-0.42030166475836794	-0.09892216664157726	1.9709218856946473	-0.5404457944102625	-0.0774306030124667	1.9004849917025917	-0.5575961974924857	-0.07997835478053346	1.8435471843566158	-0.6074442692541469
87	2.9	-0.13054351373356704	1.8282071589741755	-0.45629548339626397	-0.14752484406309793	1.8251401023608538	-0.4043005757906826	-0.15230788676358056	1.7086479245984312	-0.42782824464850217	-0.14240411222594151	1.5871924003384812	-0.433617844253112	-0.17297878512175344	1.5622579275048636	-0.47427191198965857	-0.17227776644034837	1.5696914055198776	-0.47604061199547215	-0.13391273273247523	1.5770612449832597	-0.4377015921112713	-0.11335322423567115	1.8297846978596695	-0.5117305061970616	-0.11542256228902731	1.7176245406770263	-0.524904988911486	-0.10815514058038149	1.5987906432478154	-0.5036910202411807	-0.12313257198596599	1.5697933933933046	-0.5580229473569386	-0.1104755357126217	1.577411133325884	-0.5723740463910394	-0.10730161626362834	1.5882478460179288	-0.48114533509645047	-0.12548422317072297	1.9699465244546503	-0.4801945562029894	-0.15004954648429827	2.031516142663703	-0.5259550235970091	-0.15340049926788732	1.9701005363209139	-0.4125317313914023	-0.1706082452972142	1.897269156820609	-0.38357530921549254	-0.19753438081710334	1.8337128553384328	-0.4066995825776782	-0.09565290478628054	1.9712654659552942	-0.5485754430583611	-0.07591653529274639	1.8991005022633944	-0.5721456751686217	-0.07560292345077624	1.841721753342763	-0.6120833516005842
88	2.933333333333333	-0.12944293809258736	1.8286553678816628	-0.4619667994576466	-0.14665206590622595	1.8270868925501411	-0.41014469404228915	-0.1524086970420158	1.7123763626988757	-0.42807146383482475	-0.14240411222594151	1.5871924003384812	-0.433617844253112	-0.17297878512175344	1.5622579275048636	-0.47427191198965857	-0.17227776644034837	1.5696914055198776	-0.47604061199547215	-0.13391273273247523	1.5770612449832597	-0.4377015921112713	-0.10942507879806508	1.8290475834179276	-0.5163079789491172	-0.11960157281619307	1.7220526657002624	-0.5425606946387617	-0.10659893098652022	1.6025485372970052	-0.510298090694172	-0.12501584572279517	1.5738436126203348	-0.5568798337408843	-0.11000350828703517	1.5801088828039906	-0.5737175074089967	-0.10442741122477413	1.5897802197059865	-0.48484455628961565	-0.12438979346872706	1.970119016997826	-0.48570943269852607	-0.14790078931785533	2.030339979581797	-0.5278546618610775	-0.1514830285999825	1.9701449440928405	-0.41480976531540686	-0.16955076054197243	1.8963626990361473	-0.3888540959324845	-0.19716254985739168	1.8333915035892787	-0.40654326141688624	-0.09526525637459818	1.9716041160421773	-0.5573095489672993	-0.07681959988430222	1.897558600767053	-0.575393485927329	-0.0787527267456842	1.836323780544861	-0.612100878587342
89	2.966666666666667	-0.12800076373618116	1.828524073906452	-0.4679752715152879	-0.14345553641774086	1.8275416245132152	-0.41816774449985483	-0.14711890233884833	1.7094651221098685	-0.42023237684284903	-0.14240411222594151	1.5871924003384812	-0.433617844253112	-0.17297878512175344	1.5622579275048636	-0.47427191198965857	-0.17227776644034837	1.5696914055198776	-0.47604061199547215	-0.13391273273247523	1.5770612449832597	-0.4377015921112713	-0.10979408219074142	1.8306315044476607	-0.5289466176025618	-0.1213387135313642	1.7211691256642243	-0.5494680024273839	-0.10082124706610934	1.6029568093397235	-0.5167056097470624	-0.11995315039827137	1.5741188834486837	-0.5662089712723455	-0.10600084196611045	1.5791397917109908	-0.5779196188859544	-0.09776096945356737	1.5915377818273861	-0.4963579422844472	-0.12127286340925889	1.9703483586567012	-0.4937460058202822	-0.14391467076628756	2.030529175070739	-0.5324705358494931	-0.1457539368028269	1.9703828382087976	-0.42171153605962497	-0.16464167604396054	1.8947751673031303	-0.38984580731123575	-0.19329536176561496	1.8302399252981518	-0.4106427938680553	-0.09534647225699813	1.9676609167368293	-0.5678357304876378	-0.07610994534768287	1.8982084310327363	-0.5840526343741914	-0.07912352306820325	1.8372805277017248	-0.6157890091514291
90	3.0	-0.12682486326249484	1.8275474106540086	-0.4824251229515023	-0.14337707446356562	1.8251532323412198	-0.4269480431111075	-0.14527395297386994	1.707554881858796	-0.42198764740270484	-0.14240411222594151	1.5871924003384812	-0.433617844253112	-0.17297878512175344	1.5622579275048636	-0.47427191198965857	-0.17227776644034837	1.5696914055198776	-0.47604061199547215	-0.13391273273247523	1.5770612449832597	-0.4377015921112713	-0.10928692553113215	1.8294092852286867	-0.5378303784329629	-0.11693511761515754	1.7175278480563416	-0.5495703475623847	-0.10286141493854825	1.5993329731000174	-0.5400361834824419	-0.12111137388682852	1.5702308491170964	-0.5858435906651114	-0.10767229592710699	1.5749104538305487	-0.6008266268322653	-0.09785922527841547	1.585392343746749	-0.5216970516534192	-0.11892891452907357	1.970769165516872	-0.5050081070491865	-0.14269776980850887	2.0308431084634493	-0.5379303142110912	-0.1455818629042759	1.9706214698691191	-0.43064926054528013	-0.16495750742101178	1.892493255656872	-0.407579785762829	-0.1897938827756132	1.8297159274338626	-0.4148625086135348	-0.09129024969191284	1.9702125783621331	-0.5734598783247711	-0.07490322352658495	1.8979531999246675	-0.5900907742688103	-0.07512126353999325	1.834123096077636	-0.6200695496261149
91	3.033333333333333	-0.12340133973782536	1.827563643971818	-0.4906969448944652	-0.14013614547963427	1.824695802149142	-0.43521888358706684	-0.1451232680924257	1.7071150246838014	-0.4312326063474383	-0.14240411222594151	1.5871924003384812	-0.433617844253112	-0.17297878512175344	1.5622579275048636	-0.47427191198965857	-0.17227776644034837	1.5696914055198776	-0.47604061199547215	-0.13391273273247523	1.5770612449832597	-0.4377015921112713	-0.10599836210343415	1.8288927388162237	-0.5459378486022785	-0.11542154803819421	1.7165016196205591	-0.5466928912809537	-0.10345502128946316	1.597926466272289	-0.5437206321155169	-0.12171444833761354	1.568659230924248	-0.5894704831213228	-0.10671832623526456	1.5738511488539195	-0.6058816281673721	-0.09735955840749695	1.5850809120907432	-0.5228161881715117	-0.11669905882297149	1.9711399075631761	-0.5160593438045937	-0.1414470688049723	2.0323001094883657	-0.5433848460919041	-0.1434512171902252	1.9722133010057563	-0.44190937998215535	-0.16200150936233745	1.8953699226999852	-0.41599821916709667	-0.1833630342464179	1.8380347116770122	-0.41062339682834875	-0.08796164929706846	1.9700051655812578	-0.5816419428580786	-0.07079260537422044	1.8978053103895227	-0.5951831537384185	-0.0734468354661874	1.83616531853235	-0.6384695678898423
92	3.066666666666667	-0.12227387835260389	1.8308235945036788	-0.4967776900821175	-0.13616779715244914	1.8276471281767743	-0.4403648638617639	-0.1417631711394442	1.7080961240615433	-0.4397708740379433	-0.14240411222594151	1.5871924003384812	-0.433617844253112	-0.17297878512175344	1.5622579275048636	-0.47427191198965857	-0.17227776644034837	1.5696914055198776	-0.47604061199547215	-0.13391273273247523	1.5770612449832597	-0.4377015921112713	-0.10666048202035742	1.8305961209458326	-0.5497474431929268	-0.11091781898392532	1.717204783616243	-0.5516729202434677	-0.10123293229729549	1.596641642017493	-0.5461503779177187	-0.12472526997316968	1.5684883862820473	-0.590412489630713	-0.10894389034989131	1.573816787723523	-0.6036740841100845	-0.09725352132053172	1.584776379162849	-0.5228718228549003	-0.11655823743896045	1.972380032493884	-0.5164701267811381	-0.13904382874181778	2.0362185442778853	-0.5546435369368006	-0.14247366930203467	1.972502650406814	-0.447457968905912	-0.15983267156007344	1.8958218080086158	-0.4181499856325061	-0.18270172562008136	1.831126031221877	-0.4182794894426917	-0.08681337631154813	1.974930380583618	-0.5884638764166819	-0.07256602714494644	1.9016223919685422	-0.6143992387635681	-0.0711539120052916	1.8350286814149335	-0.6496564724741197
